# xmcd CD database file
#
# Track frame offsets:
#	150
#	16395
#	27990
#	47993
#	67093
#	77972
#	91645
#	110960
#	125734
#	138660
#	149736
#	167749
#
# Disc length: 2435 seconds
#
# Revision: 0
# Processed by: cddbd v1.5.2PL0 Copyright (c) Steve Scherf et al.
# Submitted via: CDex 1.51
#
DISCID=b809810c
DTITLE=get up and dance workshop nr. 63 - get up and dance workshop nr. 63
DYEAR=2008
DGENRE=Country
TTITLE0=Good Time
TTITLE1=I'm In Chains
TTITLE2=Key Lime Pie
TTITLE3=Old 97
TTITLE4=Old 97 x
TTITLE5=Singing The Song
TTITLE6=Take Back
TTITLE7=Sweetabout
TTITLE8=In Love With me
TTITLE9=Old Dan Tucker
TTITLE10=NoNoNoNo-Notso
TTITLE11=Far From The Charts
EXTD=YEAR: 2008
EXTT0=
EXTT1=
EXTT2=
EXTT3=
EXTT4=
EXTT5=
EXTT6=
EXTT7=
EXTT8=
EXTT9=
EXTT10=
EXTT11=
PLAYORDER=
